<svg xmlns="http://www.w3.org/2000/svg" width="127" height="31" viewBox="0 0 127 31" fill="none"><path d="M40.4989 10.3239C39.6164 10.3239 38.8809 10.6573 38.2926 11.3241C37.7042 11.9713 37.4101 12.7361 37.4101 13.6186V16.7663L48.7814 16.7941C49.1463 16.7949 49.4417 17.091 49.4417 17.4559C49.4417 17.8221 49.1444 18.1187 48.7782 18.1178L37.4101 18.09V21.7513C37.4101 22.1338 37.1001 22.4438 36.7176 22.4438C36.3361 22.4438 36.0265 22.1351 36.0252 21.7536L35.998 13.4715C35.998 12.1772 36.4197 11.1084 37.263 10.2651C38.1259 9.42177 39.2045 9.00012 40.4989 9.00012H48.8681C49.2336 9.00012 49.5299 9.29646 49.5299 9.66201C49.5299 10.0276 49.2336 10.3239 48.8681 10.3239H40.4989Z" fill="black"></path><path d="M68.0009 22.4143C67.6191 22.4143 67.3096 22.1048 67.3096 21.723V14.5305H54.3954V21.723C54.3954 22.1048 54.0859 22.4143 53.7041 22.4143C53.3223 22.4143 53.0128 22.1048 53.0128 21.723V9.66201C53.0128 9.28021 53.3223 8.9707 53.7041 8.9707C54.0859 8.9707 54.3954 9.28021 54.3954 9.66201V13.2068H67.3096V9.66201C67.3096 9.28021 67.6191 8.9707 68.0009 8.9707C68.3827 8.9707 68.6922 9.28021 68.6922 9.66201V21.723C68.6922 22.1048 68.3827 22.4143 68.0009 22.4143Z" fill="black"></path><path d="M76.1553 22.4438C74.8414 22.4438 73.7627 22.0221 72.9194 21.1788C72.0761 20.3355 71.6545 19.2667 71.6545 17.9724V13.4715C71.6545 12.1772 72.0761 11.1084 72.9194 10.2651C73.7627 9.42177 74.8414 9.00012 76.1553 9.00012H84.5245C84.8901 9.00012 85.1864 9.29646 85.1864 9.66201C85.1864 10.0276 84.8901 10.3239 84.5245 10.3239H76.1553C75.2728 10.3239 74.5374 10.6573 73.949 11.3241C73.3607 11.9713 73.0665 12.7361 73.0665 13.6186V15.2954L84.4379 15.3232C84.8028 15.3241 85.0981 15.6202 85.0981 15.9851C85.0981 16.3513 84.8008 16.6479 84.4346 16.647L73.0665 16.6192V17.8253C73.0665 18.7078 73.3607 19.4824 73.949 20.1492C74.5374 20.7964 75.2728 21.12 76.1553 21.12H84.5245C84.8901 21.12 85.1864 21.4163 85.1864 21.7819C85.1864 22.1474 84.8901 22.4438 84.5245 22.4438H76.1553Z" fill="black"></path><path d="M103.556 21.723C103.556 22.1048 103.247 22.4143 102.865 22.4143C102.483 22.4143 102.174 22.1048 102.174 21.723V13.5892C102.174 12.7263 101.86 12.0007 101.233 11.4123C100.605 10.824 99.8597 10.5298 98.9968 10.5298H92.4368C91.5739 10.5298 90.8287 10.824 90.2011 11.4123C89.5735 12.0007 89.2598 12.7263 89.2598 13.5892V21.723C89.2598 22.1048 88.9502 22.4143 88.5684 22.4143C88.1866 22.4143 87.8771 22.1048 87.8771 21.723V13.5892C87.8771 12.3145 88.3086 11.2652 89.1715 10.4416C90.054 9.61788 91.1424 9.20604 92.4368 9.20604H98.9968C100.291 9.20604 101.37 9.6473 102.233 10.5298C103.115 11.4123 103.556 12.5008 103.556 13.7951V21.723Z" fill="black"></path><path d="M107.901 22.4143C107.454 22.4143 107.092 22.0522 107.092 21.6054V9.77968C107.092 9.33289 107.454 8.9707 107.901 8.9707C108.347 8.9707 108.71 9.33289 108.71 9.77967V21.6054C108.71 22.0522 108.347 22.4143 107.901 22.4143Z" fill="black"></path><path d="M126.92 21.7255C126.909 22.1091 126.595 22.4143 126.212 22.4143H126.176C125.998 22.4143 125.826 22.351 125.691 22.2358L119.282 16.7663L112.872 22.2358C112.737 22.351 112.565 22.4143 112.388 22.4143H112.352C111.968 22.4143 111.654 22.1091 111.643 21.7255C111.637 21.5101 111.729 21.3036 111.893 21.1643L118.193 15.8249L111.892 10.4562C111.728 10.3168 111.637 10.1106 111.643 9.89563C111.654 9.51164 111.968 9.20604 112.352 9.20604H112.388C112.565 9.20604 112.737 9.26935 112.872 9.3846L119.282 14.8541L125.691 9.3846C125.826 9.26935 125.998 9.20604 126.176 9.20604H126.211C126.595 9.20604 126.909 9.51163 126.92 9.89563C126.927 10.1106 126.835 10.3168 126.671 10.4562L120.37 15.8249L126.67 21.1643C126.834 21.3036 126.927 21.5101 126.92 21.7255Z" fill="black"></path><path fill-rule="evenodd" clip-rule="evenodd" d="M13.2664 1.72323L24.5632 8.56652L13.1376 15.4776C12.941 15.5966 12.8363 15.8098 12.8466 16.0243C12.8461 16.0351 12.8459 16.0459 12.8459 16.0568L12.8606 19.5736L2.21647 12.2318C2.17999 12.2066 2.14171 12.186 2.10232 12.1699V8.127L5.86931 5.96624L13.0125 10.398C13.2961 10.5739 13.6687 10.4867 13.8447 10.203C14.0207 9.91938 13.9334 9.54679 13.6497 9.37082L7.06067 5.28288L13.2664 1.72323ZM12.9288 0.523385C13.0469 0.441752 13.1909 0.404725 13.3335 0.41902C13.4392 0.42914 13.5412 0.466915 13.6284 0.529273L25.9947 8.02044C26.1955 8.14207 26.3002 8.36199 26.2845 8.5811C26.2899 8.79103 26.1856 8.99787 25.9931 9.11434L14.0558 16.3349L14.083 22.8542L25.6077 15.8949C25.8934 15.7224 26.265 15.8142 26.4375 16.0999C26.61 16.3856 26.5183 16.7571 26.2325 16.9297L14.0889 24.2627L14.1102 29.3792L25.6886 22.5289C25.9758 22.3589 26.3465 22.454 26.5165 22.7413C26.6864 23.0285 26.5913 23.3992 26.3041 23.5692L13.8862 30.9162C13.7159 31.017 13.5162 31.0246 13.3464 30.9542C13.093 30.8831 12.9067 30.6509 12.9056 30.3747L12.8667 21.0462L2.10232 13.6215V15.5833V23.0702C2.10232 23.404 1.83173 23.6746 1.49794 23.6746C1.16415 23.6746 0.893555 23.404 0.893555 23.0702V15.5833V7.76208C0.893555 7.49317 1.06917 7.26528 1.31197 7.18685L12.9288 0.523385Z" fill="black"></path></svg>