<svg width="26" height="31" viewBox="0 0 26 31" fill="none" xmlns="http://www.w3.org/2000/svg">
<path fill-rule="evenodd" clip-rule="evenodd" d="M12.3728 1.30721L23.6696 8.1505L12.244 15.0616C12.0474 15.1806 11.9427 15.3938 11.953 15.6083C11.9525 15.6191 11.9523 15.6299 11.9523 15.6408L11.967 19.1576L1.32292 11.8158C1.28644 11.7906 1.24816 11.77 1.20877 11.7539V7.71098L4.97575 5.55022L12.1189 9.98198C12.4025 10.1579 12.7751 10.0707 12.9511 9.78698C13.1271 9.50336 13.0398 9.13077 12.7561 8.9548L6.16711 4.86686L12.3728 1.30721ZM12.0352 0.10737C12.1533 0.0257366 12.2973 -0.0112904 12.4399 0.00300464C12.5456 0.0131246 12.6476 0.0508996 12.7348 0.113258L25.1011 7.60442C25.3019 7.72605 25.4066 7.94597 25.3909 8.16508C25.3963 8.37501 25.292 8.58185 25.0995 8.69832L13.1622 15.9189L13.1894 22.4382L24.7141 15.4789C24.9998 15.3064 25.3714 15.3982 25.5439 15.6839C25.7164 15.9696 25.6247 16.3411 25.3389 16.5137L13.1953 23.8467L13.2166 28.9632L24.795 22.1129C25.0822 21.9429 25.4529 22.038 25.6229 22.3253C25.7928 22.6125 25.6977 22.9832 25.4105 23.1532L12.9926 30.5002C12.8223 30.601 12.6226 30.6086 12.4528 30.5382C12.1994 30.4671 12.0131 30.2349 12.012 29.9587L11.9731 20.6302L1.20877 13.2055V15.1673V22.6542C1.20877 22.988 0.938175 23.2586 0.604385 23.2586C0.270595 23.2586 0 22.988 0 22.6542V15.1673V7.34607C0 7.07716 0.175615 6.84926 0.418415 6.77083L12.0352 0.10737Z" fill="black"/>
</svg>
